<?xml version="1.0" encoding="UTF-8" standalone="no"?>
<!DOCTYPE svg PUBLIC "-//W3C//DTD SVG 1.1//EN" "http://www.w3.org/Graphics/SVG/1.1/DTD/svg11.dtd">
<svg width="100%" height="100%" viewBox="0 0 735 852" version="1.1" xmlns="http://www.w3.org/2000/svg" xmlns:xlink="http://www.w3.org/1999/xlink" xml:space="preserve" xmlns:serif="http://www.serif.com/" style="fill-rule:evenodd;clip-rule:evenodd;stroke-linejoin:round;stroke-miterlimit:2;">
    <g transform="matrix(2.07295,0,0,2.07295,-442.119,-442.496)">
        <path d="M390.563,227.885L555.733,323.245L555.733,513.967L390.563,609.327L225.394,513.967L225.394,323.245L390.563,227.885Z" style="fill:url(#_Linear1);"/>
    </g>
    <path d="M734.91,637.38L734.91,213.13L705.61,196.21L658.859,169.218L427.81,35.82L367.5,1L307.19,35.82L29.37,196.22L0.09,213.13L0.09,637.38L29.37,654.29L310.65,816.68L367.5,849.51L424.35,816.68L705.61,654.3L734.91,637.38ZM29.37,621.47L29.37,231L79.37,202.12L367.49,35.82L654.71,201.65L705.61,231L705.61,621.47L367.49,816.68L29.37,621.47Z" style="fill:url(#_Linear2);fill-rule:nonzero;stroke:rgb(247,225,225);stroke-opacity:0;stroke-width:1px;"/>
    <g transform="matrix(1,0,0,1,-5.22803,-100.329)">
        <text x="122.438px" y="685.867px" style="font-family:'CabinSketch-Regular', 'Cabin Sketch', sans-serif;font-size:180px;fill:rgb(56,176,152);">m<tspan x="281.738px " y="685.867px ">i</tspan>ne<tspan x="515.018px " y="685.867px ">R</tspan></text>
    </g>
    <g transform="matrix(0.804611,0,0,0.804611,44.0464,68.2784)">
        <g transform="matrix(0.824308,0,0,0.824308,123.001,224.595)">
            <path id="STROKE_eb12d5ef-3fd4-4522-8882-ee02c0ea4055" d="M16.361,28.612L16.361,27.986C15.48,27.077 15.013,25.188 14.962,22.318L14.737,22.318C14.737,24.216 14.737,25.057 14.737,24.84C14.817,26.808 14.858,27.837 14.858,27.927C14.858,28.018 14.893,28.076 14.962,28.103C15.187,30.04 15.318,30.854 15.353,30.546C15.301,29.387 15.363,30.95 15.54,35.235C15.717,39.52 15.985,44.806 16.344,51.091C16.702,57.377 16.902,62.765 16.943,67.254C16.984,71.744 16.915,77.692 16.736,85.098C16.557,92.505 16.83,99.639 17.555,106.502C18.28,113.364 18.71,123.307 18.845,136.329C18.98,149.352 18.674,161.377 17.926,172.403C17.177,183.43 16.772,192.376 16.71,199.241C16.648,206.106 16.602,210.301 16.573,211.825C16.544,213.35 16.563,218.339 16.631,226.792C16.7,235.246 16.844,241.087 17.064,244.315C17.284,247.543 17.547,250.977 17.854,254.616C18.161,258.255 18.474,261.138 18.794,263.265C19.115,265.392 19.424,266.725 19.723,267.264C20.022,267.803 20.382,268.438 20.803,269.169C21.225,269.901 21.576,270.493 21.856,270.945C22.136,271.397 22.203,271.529 22.057,271.34C21.911,271.152 21.812,271.034 21.761,270.986C21.71,270.939 21.904,271.138 22.345,271.584C22.785,272.029 23.444,272.664 24.323,273.487C25.201,274.311 25.608,274.657 25.543,274.527C25.477,274.398 25.406,274.335 25.329,274.338C25.252,274.342 25.606,274.613 26.392,275.15C27.178,275.688 27.931,276.122 28.65,276.451C29.368,276.781 29.65,276.881 29.494,276.753C29.338,276.625 29.306,276.583 29.398,276.627C29.49,276.673 29.745,276.824 30.164,277.082C30.582,277.34 35.215,277.509 44.062,277.589C44.073,277.403 44.099,277.294 44.142,277.262C44.185,277.23 44.244,277.134 44.321,276.974C44.397,276.814 44.362,276.879 44.213,277.171C44.065,277.462 44.018,277.575 44.074,277.509C44.129,277.443 44.16,277.422 44.166,277.446C44.173,277.47 44.317,277.238 44.598,276.75C44.879,276.262 45.425,275.034 46.236,273.066C47.047,271.098 47.409,270.148 47.321,270.216C47.233,270.284 47.213,270.166 47.261,269.863C47.309,269.559 47.354,269.428 47.398,269.471C47.441,269.512 47.67,265.884 48.086,258.584C48.501,251.285 48.812,244.36 49.019,237.808C49.225,231.256 49.378,226.53 49.476,223.629C49.574,220.728 49.605,218.771 49.569,217.758C49.533,216.744 49.523,216.094 49.537,215.805C49.552,215.516 49.557,215.103 49.551,214.567C49.545,214.03 49.543,213.496 49.545,212.962C49.546,212.429 49.547,212.17 49.546,212.185C49.546,212.2 49.546,212.29 49.546,212.457C49.546,212.623 49.546,212.458 49.546,211.962C49.546,211.466 49.549,211.122 49.556,210.932C49.563,210.742 49.555,210.59 49.534,210.475C49.512,210.36 49.501,208.688 49.5,205.459C49.5,202.229 49.505,199.789 49.517,198.139C49.529,196.489 49.564,195.347 49.62,194.714C49.677,194.08 49.697,193.811 49.68,193.906C49.662,194.001 49.669,193.811 49.7,193.336C49.731,192.861 49.741,192.815 49.732,193.199C49.722,193.584 49.802,192.539 49.972,190.066C50.142,187.592 50.227,185.715 50.227,184.435C50.227,183.154 50.247,182.265 50.289,181.767C50.33,181.269 50.34,181.085 50.319,181.216C50.298,181.346 50.205,181.451 50.04,181.53C49.876,181.609 50.307,181.016 51.335,179.751C52.362,178.486 53.183,177.515 53.799,176.837" style="fill:none;fill-rule:nonzero;stroke:rgb(56,176,152);stroke-width:11.13px;stroke-linecap:round;stroke-miterlimit:4;"/>
            <path id="STROKE_967aa350-5616-4e56-b351-756c9a497f97" d="M15.745,20.872C15.761,20.791 15.556,21.162 15.13,21.986C15.204,22.051 15.418,22.566 15.773,23.53C16.584,24.43 20.913,25.004 28.759,25.252C36.606,25.5 43.115,25.584 48.285,25.505C53.455,25.426 57.566,25.358 60.618,25.3C63.67,25.243 65.476,25.306 66.037,25.49C66.597,25.675 67.983,25.582 70.195,25.212C72.407,24.841 74.557,24.509 76.645,24.216C78.734,23.923 79.981,24.069 80.385,24.653C80.789,25.237 81.943,25.585 83.846,25.697C85.749,25.809 87.396,25.922 88.789,26.037C90.182,26.152 90.822,26.199 90.709,26.179C90.597,26.159 90.798,26.143 91.314,26.131C91.831,26.119 92.647,26.134 93.763,26.176C94.879,26.219 96.652,26.267 99.083,26.32C101.514,26.374 103.404,26.396 104.755,26.389C106.106,26.381 107.16,26.379 107.919,26.382C108.677,26.385 109.17,26.433 109.397,26.528C109.625,26.622 109.483,26.496 108.973,26.15C108.463,25.803 111.286,25.957 117.443,26.611C123.6,27.265 128.191,27.767 131.217,28.117C134.243,28.467 136.897,29.056 139.18,29.884C141.463,30.712 143.186,31.392 144.35,31.926C145.514,32.46 146.55,32.961 147.458,33.428C148.367,33.896 149.34,34.526 150.379,35.317C151.417,36.108 152.27,36.764 152.937,37.284C153.603,37.805 154.348,38.266 155.17,38.668C155.992,39.07 157.956,42.053 161.061,47.616C164.165,53.18 166.743,57.918 168.793,61.831C170.843,65.744 172.128,68.168 172.648,69.103C173.168,70.037 173.541,70.76 173.767,71.272C173.992,71.783 174.417,72.859 175.044,74.5C175.671,76.141 176.107,77.529 176.354,78.664C176.6,79.799 176.845,80.529 177.087,80.853C177.33,81.177 177.698,83.08 178.191,86.564C178.684,90.048 178.855,92.886 178.704,95.078C178.553,97.271 178.515,98.458 178.589,98.64C178.663,98.823 178.76,100.95 178.88,105.022C178.999,109.095 178.611,113.427 177.716,118.02C176.821,122.612 175.979,126.185 175.191,128.738C174.404,131.29 173.846,133 173.518,133.865C173.19,134.732 172.353,136.503 171.008,139.179C169.662,141.854 168.729,144.089 168.208,145.882C167.687,147.675 166.598,150.104 164.941,153.17C163.283,156.236 161.867,158.533 160.691,160.06C159.516,161.588 158.655,162.655 158.108,163.261C157.561,163.866 156.999,164.488 156.423,165.124C155.847,165.761 155.536,166.091 155.489,166.112C155.443,166.133 155.43,166.13 155.452,166.102C155.474,166.075 155.529,166.041 155.618,165.999C155.707,165.958 155.279,166.264 154.335,166.917C153.39,167.571 152.354,168.218 151.225,168.86C150.096,169.501 148.778,170.241 147.27,171.081C145.762,171.92 145.172,172.25 145.501,172.071C145.829,171.891 145.678,171.968 145.049,172.301C144.421,172.633 143.414,173.23 142.028,174.091C140.642,174.952 139.868,175.521 139.704,175.797C139.54,176.074 138.607,176.67 136.903,177.584C135.199,178.499 133.8,179.17 132.707,179.599C131.615,180.027 130.714,180.371 130.005,180.633C129.295,180.895 128.751,181.082 128.371,181.196C127.991,181.31 127.9,181.331 128.096,181.259C128.292,181.186 127.543,181.416 125.851,181.948C124.159,182.48 121.876,183.107 119.004,183.829C116.132,184.551 111.711,185.142 105.742,185.603C99.772,186.064 95.477,186.27 92.855,186.223C90.234,186.175 87.651,186.156 85.109,186.167C82.566,186.177 80.665,186.187 79.405,186.196C78.145,186.204 77.228,186.176 76.654,186.112C76.08,186.047 74.738,186.213 72.63,186.609C71.858,185.111 71.411,184.095 71.287,183.56C68.711,184.22 67.797,184.416 68.545,184.147C65.387,184.147 64.305,184.147 65.299,184.147C63.057,184.643 60.175,183.705 56.653,181.333C56.578,181.528 56.504,181.788 56.429,182.114C56.504,182.114 56.798,182.199 57.311,182.368C57.824,182.538 58.556,182.792 59.507,183.13" style="fill:none;fill-rule:nonzero;stroke:rgb(56,176,152);stroke-width:11.13px;stroke-linecap:round;stroke-miterlimit:4;"/>
            <circle id="STROKE_e68b0a68-41d6-4d59-80e9-3df694959b5a" cx="52.96" cy="68.052" r="5.564" style="fill:rgb(23,22,18);stroke:rgb(56,176,152);stroke-width:0.05px;stroke-linejoin:miter;stroke-miterlimit:4;"/>
            <path id="STROKE_546d55c8-7b4e-4517-8add-13d957885c5d" d="M53.799,65.199C53.799,65.134 53.725,64.86 53.575,64.378L53.183,64.378C52.744,61.353 52.614,60.343 52.792,61.349C52.792,61.14 52.717,60.73 52.568,60.118C52.56,60.226 52.557,63.655 52.558,70.404C52.56,77.153 52.547,82.502 52.519,86.451C52.492,90.399 52.55,92.619 52.693,93.109C52.836,93.6 52.254,109.379 50.945,140.445C51.281,140.445 51.705,140.292 52.218,139.986C52.731,139.68 53.333,139.22 54.023,138.608" style="fill:none;fill-rule:nonzero;stroke:rgb(56,176,152);stroke-width:11.13px;stroke-linecap:round;stroke-miterlimit:4;"/>
            <path id="STROKE_b1d8e340-d1cc-4361-b380-73a11ca77520" d="M57.269,65.394C57.591,65.285 56.36,65.363 53.575,65.629C55.409,65.259 56.23,65.051 56.038,65.003C53.579,65.615 55.744,64.969 62.533,63.066C69.323,61.162 75.359,59.88 80.643,59.219C85.927,58.558 89.679,58.294 91.899,58.428C94.118,58.561 96.58,59.056 99.285,59.911C101.989,60.766 104.434,61.497 106.62,62.104C108.807,62.71 110.446,63.185 111.538,63.527C112.631,63.87 113.753,64.33 114.905,64.908C116.056,65.487 117.059,66.054 117.912,66.61C118.766,67.166 119.289,67.523 119.483,67.681C119.676,67.839 119.73,67.909 119.643,67.891C119.556,67.874 120.981,68.791 123.919,70.644C126.857,72.496 129.731,74.771 132.54,77.47C135.35,80.168 137.496,82.614 138.979,84.808C140.462,87.002 141.377,88.191 141.723,88.375C142.07,88.559 142.847,90.152 144.052,93.154C145.258,96.156 145.82,98.183 145.737,99.234C145.654,100.286 145.633,100.928 145.674,101.16C145.715,101.392 145.786,102.731 145.886,105.176C145.986,107.62 145.848,109.993 145.474,112.296C145.099,114.599 144.889,116.256 144.845,117.267C144.8,118.278 143.966,120.387 142.343,123.593C140.72,126.8 139.443,129.113 138.512,130.535C137.582,131.957 137.033,132.713 136.865,132.805C136.698,132.897 136.51,133.022 136.302,133.18C136.094,133.338 135.422,133.805 134.288,134.583C133.154,135.36 132.707,135.666 132.946,135.501C133.186,135.335 133.07,135.4 132.598,135.694C132.126,135.988 131.342,136.427 130.247,137.01C129.152,137.594 128.049,138.106 126.938,138.547C125.828,138.988 124.821,139.343 123.92,139.611C123.018,139.878 122.268,140.086 121.668,140.234C121.068,140.382 120.773,140.395 120.783,140.272C120.792,140.15 120.511,140.341 119.94,140.845C119.37,141.35 115.918,142.142 109.584,143.223C103.25,144.303 98.242,144.992 94.56,145.29C90.878,145.589 87.709,145.772 85.055,145.841C82.4,145.909 80.145,145.938 78.29,145.926C76.435,145.915 74.896,145.911 73.672,145.915C72.448,145.919 71.288,145.92 70.191,145.919C69.094,145.917 68.198,145.917 67.502,145.917C66.806,145.918 65.856,145.918 64.653,145.918L61.228,145.918C60.148,145.918 59.641,145.918 59.707,145.918C59.773,145.918 59.765,145.918 59.684,145.918C59.603,145.918 59.668,145.918 59.88,145.918C60.093,145.918 58.737,145.918 55.814,145.918C55.889,145.918 56.112,145.986 56.485,146.123C56.859,146.26 57.381,146.465 58.052,146.739" style="fill:none;fill-rule:nonzero;stroke:rgb(56,176,152);stroke-width:11.13px;stroke-linecap:round;stroke-miterlimit:4;"/>
            <path id="STROKE_5cbcf292-ec34-440f-983f-bae1ae2f1ba7" d="M19.667,249.563L19.567,249.563C19.826,249.603 23.251,252.55 29.842,258.404C29.708,258.51 27.995,254.749 24.704,247.118C25.618,246.757 30.177,250.154 38.38,257.312C38.842,257.391 38.566,256.199 37.55,253.738C36.534,251.277 35.006,248.217 32.966,244.56C30.926,240.903 28.723,237.125 26.356,233.224C23.99,229.324 22.686,227.223 22.446,226.922" style="fill:none;fill-rule:nonzero;stroke:rgb(56,176,152);stroke-width:3.67px;stroke-linecap:round;stroke-miterlimit:4;"/>
            <path id="STROKE_65bc1a0c-8a50-402f-b510-30b75fd7a4ea" d="M23.439,217.457C23.384,217.309 23.875,217.675 24.912,218.554C25.949,219.434 26.963,220.323 27.954,221.222C28.945,222.12 29.832,222.951 30.613,223.714C31.396,224.477 32.1,225.19 32.727,225.853C33.354,226.516 38.349,231.351 47.712,240.357C47.438,238.554 45.16,234.909 40.879,229.423C36.599,223.936 33.978,220.606 33.019,219.434" style="fill:none;fill-rule:nonzero;stroke:rgb(56,176,152);stroke-width:3.52px;stroke-linecap:round;stroke-miterlimit:4;"/>
            <path id="STROKE_4bd54995-8aee-4880-bd37-39e9fadb45db" d="M24.878,209.968C24.245,209.263 23.227,207.911 21.826,205.912C22.281,205.373 24.622,206.875 28.849,210.419C29.263,210.267 28.401,208.138 26.263,204.031C24.126,199.925 22.704,195.096 22,189.547C23.12,188.644 25.887,190.177 30.302,194.146C34.716,198.115 38.989,202.366 43.12,206.9C43.388,207.081 41.429,203.417 37.243,195.909C33.057,188.4 29.3,179.516 25.97,169.256C26.987,168.068 31.736,173.047 40.216,184.19C40.168,184.082 39.405,182.687 37.928,180.005C36.45,177.323 35.41,175.441 34.806,174.361" style="fill:none;fill-rule:nonzero;stroke:rgb(56,176,152);stroke-width:3.48px;stroke-linecap:round;stroke-miterlimit:4;"/>
            <path id="STROKE_9e303feb-46b1-4652-aab8-c14e771b9f66" d="M25.623,150.004C25.396,149.712 25.666,149.572 26.434,149.584C27.202,149.597 28.316,150.232 29.778,151.489C31.24,152.745 33.479,155.32 36.494,159.215C39.51,163.111 42.405,167.044 45.18,171.015C44.925,170.536 44.593,170.011 44.182,169.438C43.772,168.865 43.294,168.189 42.748,167.409" style="fill:none;fill-rule:nonzero;stroke:rgb(56,176,152);stroke-width:3.71px;stroke-linecap:round;stroke-miterlimit:4;"/>
            <path id="STROKE_462e2dbf-42e7-4b40-9a4e-e8e6e7bb1f15" d="M31.654,132.322C32.634,133.008 34.553,135.153 37.412,138.758C40.271,142.362 42.985,146.14 45.552,150.091C45.552,150.004 44.785,148.848 43.251,146.624C41.716,144.399 40.589,142.792 39.869,141.804" style="fill:none;fill-rule:nonzero;stroke:rgb(56,176,152);stroke-width:3.71px;stroke-linecap:round;stroke-miterlimit:4;"/>
            <path id="STROKE_65f58ef1-c45e-49e9-aea9-f4c55d26ca96" d="M29.122,117.985C29.849,117.212 32.645,120.523 37.511,127.919C37.013,126.74 36.769,126.238 36.778,126.414C36.788,126.59 35.532,124.432 33.011,119.942C30.49,115.452 27.936,110.292 25.35,104.464C26.016,104.285 31.394,111.288 41.482,125.474C41.852,126.164 39.456,121.94 34.295,112.803C29.134,103.666 25.995,98.211 24.878,96.437" style="fill:none;fill-rule:nonzero;stroke:rgb(56,176,152);stroke-width:3.48px;stroke-linecap:round;stroke-miterlimit:4;"/>
            <path id="STROKE_dda87c37-8199-4380-94cf-5a89b66fd87f" d="M15.15,79.396C14.91,79.012 14.397,77.96 13.611,76.241C14.186,77.105 15.637,78.837 17.965,81.438C20.293,84.039 23.2,87.475 26.686,91.745C30.171,96.015 33.722,100.462 37.337,105.088C37.906,105.71 37.364,104.134 35.712,100.36C34.06,96.586 32.173,92.795 30.05,88.986C27.928,85.177 25.302,80.085 22.173,73.71C23.65,73.931 25.808,75.333 28.644,77.915C31.481,80.497 34.271,83.394 37.015,86.608C37.243,85.912 35.944,83.011 33.119,77.905C30.293,72.8 25.867,62.775 19.84,47.828C20.728,47.268 23.221,49.239 27.319,53.741C31.417,58.243 35.327,62.975 39.05,67.937C39.202,67.204 37.834,63.761 34.946,57.606C32.059,51.452 29.233,44.015 26.467,35.294C28.045,33.664 34.167,39.98 44.832,54.242C44.788,54.341 43.979,52.095 42.406,47.503C40.832,42.912 39.519,38.016 38.467,32.815C39.288,31.564 41.964,32.523 46.494,35.692C51.024,38.862 54.506,41.679 56.94,44.145C59.374,46.611 61.878,48.304 64.452,49.223C64.195,49.246 64.704,46.392 65.978,40.66C66.491,40.602 66.897,40.558 67.194,40.53" style="fill:none;fill-rule:nonzero;stroke:rgb(56,176,152);stroke-width:3.49px;stroke-linecap:round;stroke-miterlimit:4;"/>
            <path id="STROKE_99583e1a-1f14-409b-979d-0b94101e33c2" d="M81.813,44.222C81.249,44.111 81.07,44.108 81.276,44.214C81.483,44.32 81.246,44.315 80.565,44.198C79.883,44.082 79.418,43.682 79.168,43C78.919,42.317 78.804,41.959 78.823,41.925C78.843,41.891 78.851,41.924 78.85,42.026C78.848,42.127 78.81,41.671 78.735,40.66C80.403,40.84 80.957,40.763 80.397,40.429C79.836,40.096 83.253,42.339 90.648,47.16C90.553,47.01 91.14,43.508 92.41,36.655C95.095,33.834 105.486,41.199 123.582,58.749C123.614,58.599 123.562,58.327 123.426,57.934C123.29,57.541 123.102,57.091 122.862,56.583" style="fill:none;fill-rule:nonzero;stroke:rgb(56,176,152);stroke-width:3.53px;stroke-linecap:round;stroke-miterlimit:4;"/>
            <path id="STROKE_31a1e602-073f-4fc9-8679-9b7e5b981312" d="M116.087,35.745C117.809,35.533 119.831,37.064 122.151,40.339C124.471,43.614 128.406,48.636 133.956,55.404C133.956,55.346 133.601,54.558 132.889,53.041C132.178,51.525 131.566,50.301 131.052,49.37" style="fill:none;fill-rule:nonzero;stroke:rgb(56,176,152);stroke-width:3.71px;stroke-linecap:round;stroke-miterlimit:4;"/>
            <path id="STROKE_cc4232da-006c-4bc6-be81-ac5d622f1dac" d="M128.074,33.404C128.328,33.346 128.982,33.446 130.038,33.706C131.094,33.966 132.985,35.805 135.711,39.224C138.438,42.644 140.575,45.38 142.123,47.434C143.671,49.488 146.508,53.826 150.634,60.448C150.601,60.24 150.459,59.843 150.207,59.256C149.954,58.67 149.708,58.166 149.468,57.744" style="fill:none;fill-rule:nonzero;stroke:rgb(56,176,152);stroke-width:3.71px;stroke-linecap:round;stroke-miterlimit:4;"/>
            <path id="STROKE_2db92344-81e1-46bc-a747-9179ec388341" d="M149.468,56.496C150.631,55.796 154.957,62.586 162.448,76.865C162.266,76.836 161.627,76.364 160.531,75.448C159.435,74.532 158.601,73.803 158.031,73.259" style="fill:none;fill-rule:nonzero;stroke:rgb(56,176,152);stroke-width:3.67px;stroke-linecap:round;stroke-miterlimit:4;"/>
            <path id="STROKE_b6e10141-5dcc-401a-be38-b8f88e125002" d="M149.468,64.973C149.177,65.457 156.3,76.488 170.837,98.067C170.63,97.916 170.423,97.766 170.217,97.616" style="fill:none;fill-rule:nonzero;stroke:rgb(56,176,152);stroke-width:3.4px;stroke-linecap:round;stroke-miterlimit:4;"/>
            <path id="STROKE_6958b2c2-1d48-4822-a171-056669cb179e" d="M172.723,106.44C173.196,107.207 173.519,109.825 173.691,114.293C173.15,114.311 172.721,114.278 172.404,114.194C172.087,114.11 171.689,113.992 171.209,113.842" style="fill:none;fill-rule:nonzero;stroke:rgb(56,176,152);stroke-width:3.71px;stroke-linecap:round;stroke-miterlimit:4;"/>
            <path id="STROKE_d66d03bb-a559-4e3f-a403-a3ddd7565fbd" d="M165.154,108.156C165.388,108.413 166.172,110.162 167.505,113.403C168.837,116.644 169.89,120.125 170.663,123.845C170.63,123.845 170.508,123.793 170.297,123.689C170.086,123.585 169.786,123.429 169.397,123.221" style="fill:none;fill-rule:nonzero;stroke:rgb(56,176,152);stroke-width:3.71px;stroke-linecap:round;stroke-miterlimit:4;"/>
            <path id="STROKE_741963fe-c76b-4b52-8973-b96ef23cb7de" d="M48.258,155.864C48.356,156.012 48.426,156.134 48.467,156.231C48.507,156.328 48.617,156.498 48.794,156.741C48.971,156.985 49.211,157.291 49.513,157.661C49.815,158.031 50.093,158.369 50.347,158.674C50.601,158.98 51.31,159.978 52.473,161.667C53.635,163.357 55.208,165.421 57.192,167.86C57.01,167.652 56.301,166.818 55.064,165.359C53.827,163.9 52.849,162.781 52.129,162.001" style="fill:none;fill-rule:nonzero;stroke:rgb(56,176,152);stroke-width:3.71px;stroke-linecap:round;stroke-miterlimit:4;"/>
            <path id="STROKE_34769beb-4918-4496-913e-54434236591d" d="M44.907,152.431C45.54,152.388 48.592,154.219 54.063,157.923C59.534,161.627 64.062,164.876 67.647,167.668C71.232,170.461 74.808,172.327 78.375,173.269C78.49,172.749 78.536,172.358 78.514,172.097C78.491,171.836 78.451,171.587 78.391,171.35C78.331,171.113 78.074,170.639 77.619,169.926C77.163,169.213 76.667,168.496 76.129,167.773" style="fill:none;fill-rule:nonzero;stroke:rgb(56,176,152);stroke-width:3.71px;stroke-linecap:round;stroke-miterlimit:4;"/>
            <path id="STROKE_6afb644c-9c18-45b5-8492-21dc1b3dcc20" d="M69.552,155.603C70.119,155.53 72.629,157.768 77.081,162.317C81.533,166.867 85.366,170.656 88.581,173.685C91.796,176.713 95.058,178.828 98.367,180.029C98.539,179.572 98.28,178.542 97.59,176.938C96.9,175.335 96.298,174.112 95.786,173.269" style="fill:none;fill-rule:nonzero;stroke:rgb(56,176,152);stroke-width:3.63px;stroke-linecap:round;stroke-miterlimit:4;"/>
            <path id="STROKE_e688909d-be3a-4bf7-9756-fadaef5fe0a2" d="M98.218,166.959C99.254,167.709 102.779,171.916 108.79,179.579C108.608,179.371 108.336,179.086 107.972,178.725C107.608,178.364 107.152,177.926 106.606,177.412" style="fill:none;fill-rule:nonzero;stroke:rgb(56,176,152);stroke-width:3.71px;stroke-linecap:round;stroke-miterlimit:4;"/>
            <path id="STROKE_e533dccb-215b-4554-b38c-3664c9210540" d="M96.058,150.992C96.311,151.099 96.336,151.135 96.134,151.1C95.932,151.066 96.116,151.225 96.685,151.579C97.254,151.932 98.795,152.565 101.309,153.477C103.822,154.389 105.831,155.368 107.336,156.413C108.841,157.459 112.552,159.44 118.469,162.356C118.577,162.048 118.538,161.454 118.352,160.574C118.166,159.693 117.923,158.967 117.626,158.395" style="fill:none;fill-rule:nonzero;stroke:rgb(56,176,152);stroke-width:3.71px;stroke-linecap:round;stroke-miterlimit:4;"/>
            <path id="STROKE_bff26fa6-28cf-40f1-9457-215bfed4adf7" d="M115.193,151.72L115.193,151.226C115.277,150.48 116.694,151.373 119.444,153.905C122.194,156.437 125.857,160.008 130.432,164.618C130.269,163.897 129.258,162.054 127.4,159.089C125.541,156.124 124.36,154.205 123.855,153.333" style="fill:none;fill-rule:nonzero;stroke:rgb(56,176,152);stroke-width:3.71px;stroke-linecap:round;stroke-miterlimit:4;"/>
            <path id="STROKE_cf200ae2-5186-4403-913a-e86e22b6757e" d="M122.59,149.103C122.59,148.895 122.664,148.458 122.813,147.794C123.623,147.011 129.381,151.804 140.087,162.174C140.78,163.014 139.956,161.275 137.615,156.957C135.274,152.639 133.496,147.195 132.281,140.626C132.445,138.488 136.246,141.856 143.685,150.733C143.417,150.069 142.69,148.486 141.505,145.985C140.32,143.483 139.773,140.691 139.863,137.609C141.88,135.973 147.398,139.532 156.417,148.288C156.707,148.224 155.507,145.554 152.817,140.277C150.127,135 148.398,130.62 147.63,127.137C146.862,123.653 146.506,121.776 146.564,121.504" style="fill:none;fill-rule:nonzero;stroke:rgb(56,176,152);stroke-width:3.64px;stroke-linecap:round;stroke-miterlimit:4;"/>
            <path id="STROKE_198a8041-1d05-4831-8d5c-7838ed9f5a5e" d="M148.748,122.406C149.1,123.037 152.732,126.192 159.644,131.871C159.89,132.015 159.158,128.831 157.447,122.319C157.189,122.119 157.831,122.236 159.371,122.669C160.912,123.102 162.484,123.678 164.086,124.4C164.59,124.782 163.636,123.112 161.222,119.388C158.809,115.665 156.992,110.733 155.772,104.594C155.823,103.245 159.165,105.126 165.799,110.236C165.546,110.243 163.855,108.046 160.724,103.647C157.593,99.248 155.338,95.113 153.958,91.243C152.578,87.373 151.859,85.348 151.801,85.169" style="fill:none;fill-rule:nonzero;stroke:rgb(56,176,152);stroke-width:3.55px;stroke-linecap:round;stroke-miterlimit:4;"/>
            <path id="STROKE_4b9eb701-1534-49f0-a70a-33bcd39c94a8" d="M144.058,78.581C144.09,78.686 143.975,79.137 143.711,79.932C143.448,80.727 144.854,82.051 147.929,83.903C148.144,83.724 148.326,83.545 148.475,83.366" style="fill:none;fill-rule:nonzero;stroke:rgb(56,176,152);stroke-width:3.71px;stroke-linecap:round;stroke-miterlimit:4;"/>
        </g>
        <g transform="matrix(0.645831,0,0,0.645831,135.515,247.903)">
            <path id="STROKE_f213d9eb-e777-4f1a-af3d-daccf370ca53" d="M345.54,72.357C346.002,80.799 346.231,85.8 346.228,87.359C346.226,88.919 346.233,92.353 346.249,97.661C346.266,102.97 346.269,113.57 346.257,129.461C346.198,129.605 346.221,129.335 346.325,128.65C346.428,127.966 346.555,127.22 346.704,126.412" style="fill:none;fill-rule:nonzero;stroke:rgb(56,176,152);stroke-width:11.13px;stroke-linecap:round;stroke-miterlimit:4;"/>
            <path id="STROKE_5516e1df-93e1-4f6a-ad99-238958fad8e1" d="M399.864,64.642C400.148,65.597 400.382,66.467 400.568,67.253C400.754,68.039 400.879,68.82 400.944,69.595C401.01,70.371 401.148,71.099 401.36,71.777C401.572,72.455 401.853,76.533 402.204,84.011C402.556,91.49 402.756,98.695 402.806,105.627C402.856,112.558 402.875,117.424 402.862,120.225C402.848,123.026 402.793,125.466 402.696,127.546C402.598,129.626 402.57,132.167 402.61,135.168C402.039,135.283 401.509,135.211 401.02,134.951C400.532,134.692 399.98,134.36 399.364,133.956" style="fill:none;fill-rule:nonzero;stroke:rgb(56,176,152);stroke-width:11.13px;stroke-linecap:round;stroke-miterlimit:4;"/>
            <path id="STROKE_0507becb-16b5-4c8c-b21c-ae15e9791d17" d="M345.473,132.901C345.628,132.901 345.218,132.901 344.242,132.901C344.727,134.609 349.503,135.803 358.571,136.484C367.639,137.164 374.765,137.337 379.948,137.001C385.132,136.665 389.065,136.261 391.749,135.791C394.434,135.32 396.915,134.131 399.193,132.224C401.471,130.317 402.61,129.123 402.61,128.64" style="fill:none;fill-rule:nonzero;stroke:rgb(56,176,152);stroke-width:11.13px;stroke-linecap:round;stroke-miterlimit:4;"/>
            <path id="STROKE_bc17c04f-f581-461b-a05b-871ba7d28828" d="M388.281,140.147L388.284,139.82C389.077,139.563 389.971,139.079 390.964,138.367C391.956,137.655 392.723,136.992 393.264,136.38" style="fill:none;fill-rule:nonzero;stroke:rgb(56,176,152);stroke-width:11.13px;stroke-linecap:round;stroke-miterlimit:4;"/>
            <path id="STROKE_ce065f1f-41c4-40ec-9365-4cf8f9467dc3" d="M405.719,67.62L405.083,67.62C404.395,67.669 405.07,67.643 407.11,67.541C409.149,67.44 411.04,67.384 412.782,67.373C414.524,67.363 415.873,67.356 416.83,67.353C417.787,67.349 418.61,67.359 419.301,67.382C419.991,67.405 420.57,67.498 421.037,67.66C421.504,67.822 422.059,67.952 422.703,68.05C423.346,68.147 424.292,68.373 425.54,68.729C426.788,69.085 427.951,69.455 429.029,69.838C430.108,70.221 430.886,70.483 431.363,70.623C431.839,70.763 432.333,70.913 432.843,71.074C433.353,71.234 433.835,71.376 434.289,71.499C434.742,71.622 434.911,71.646 434.795,71.57C434.679,71.494 435.603,71.768 437.57,72.39C439.536,73.013 441.659,73.742 443.941,74.575C446.222,75.41 450.226,76.948 455.952,79.192C461.679,81.435 466.117,83.23 469.267,84.576C472.417,85.923 474.593,86.914 475.793,87.55C476.993,88.186 478.414,89 480.057,89.992C481.7,90.985 483.055,91.879 484.122,92.676C485.188,93.472 486.567,94.503 488.256,95.767C489.946,97.033 491.609,98.284 493.248,99.522C494.886,100.761 496.118,101.709 496.944,102.369C497.771,103.028 498.821,103.908 500.096,105.01C501.371,106.113 502.316,106.956 502.931,107.541C503.547,108.125 504.018,108.607 504.345,108.986C504.672,109.364 504.835,109.552 504.834,109.548C504.833,109.544 504.826,109.533 504.813,109.516C504.801,109.498 504.942,109.668 505.237,110.024C505.532,110.38 505.712,110.6 505.775,110.683C505.838,110.766 505.843,110.777 505.788,110.716C505.734,110.656 505.836,110.776 506.095,111.077C506.354,111.378 506.797,111.928 507.424,112.727C508.051,113.526 508.504,114.204 508.782,114.76C509.059,115.316 509.275,115.791 509.428,116.186C509.581,116.58 509.669,116.826 509.69,116.925C509.712,117.023 509.882,117.48 510.199,118.295C510.516,119.111 510.872,120.245 511.267,121.696C511.662,123.148 511.996,124.377 512.269,125.386C512.542,126.394 512.841,127.338 513.166,128.219C513.491,129.099 513.665,129.59 513.69,129.692C513.715,129.794 513.723,129.811 513.714,129.742C513.705,129.674 513.78,129.868 513.941,130.324C514.101,130.779 514.253,131.25 514.396,131.734C514.539,132.219 514.695,132.782 514.865,133.424C515.035,134.066 515.158,134.53 515.234,134.816C515.31,135.102 515.391,135.44 515.476,135.83C515.561,136.22 515.633,136.513 515.692,136.71C515.751,136.908 515.79,137.044 515.808,137.118C515.827,137.193 515.894,137.429 516.011,137.829C516.127,138.228 516.249,138.648 516.377,139.089C516.505,139.53 516.621,139.922 516.727,140.264C516.833,140.606 517.025,141.36 517.303,142.526C517.581,143.692 517.799,144.615 517.955,145.294C518.112,145.973 518.236,146.801 518.327,147.779C518.268,147.813 517.983,147.669 517.471,147.345C516.959,147.022 516.229,146.543 515.283,145.911C514.336,145.278 513.493,144.684 512.753,144.13C512.013,143.576 511.415,143.128 510.959,142.787C510.502,142.446 509.878,141.973 509.088,141.368C508.298,140.762 507.555,140.186 506.859,139.638C506.164,139.091 505.611,138.677 505.201,138.395C504.79,138.114 504.161,137.669 503.316,137.059C502.47,136.449 501.557,135.823 500.578,135.18C499.599,134.538 499.061,134.186 498.964,134.124C498.867,134.062 498.089,133.562 496.63,132.624C495.172,131.686 493.676,130.672 492.141,129.584C490.607,128.495 489.253,127.586 488.079,126.858C486.905,126.13 486.017,125.605 485.414,125.283C484.812,124.962 483.928,124.508 482.763,123.921C481.598,123.334 478.973,121.721 474.888,119.081C470.803,116.442 467.347,114.484 464.52,113.207C461.694,111.93 459.45,110.86 457.79,109.999C456.13,109.137 452.749,108.244 447.649,107.318C442.548,106.393 438.163,105.688 434.494,105.203C430.825,104.719 428.622,104.449 427.886,104.394C427.149,104.34 426.075,104.221 424.663,104.039C423.251,103.858 421.922,103.716 420.674,103.615C419.426,103.514 418.611,103.446 418.23,103.412C417.849,103.377 417.397,103.353 416.874,103.342C416.351,103.33 415.902,103.311 415.526,103.284C415.15,103.258 414.934,103.248 414.877,103.254C414.82,103.259 414.657,103.261 414.387,103.259C414.118,103.257 413.856,103.256 413.602,103.257C413.348,103.258 413.211,103.258 413.19,103.258C413.169,103.257 413.08,103.257 412.924,103.258L405.719,103.258C405.776,103.053 405.834,102.847 405.891,102.642" style="fill:none;fill-rule:nonzero;stroke:rgb(56,176,152);stroke-width:11.13px;stroke-linecap:round;stroke-miterlimit:4;"/>
            <path id="STROKE_ee31bed9-0328-4026-a056-1eb389bdc3d6" d="M341.785,77.751C341.806,77.648 341.782,77.055 341.711,75.974L341.515,75.974L341.515,75.889C340.969,75.811 340.749,75.783 340.855,75.803L339.352,75.803C339.276,75.803 339.345,75.803 339.559,75.803C339.885,75.977 339.729,75.95 339.089,75.722C338.45,75.494 337.136,75.673 335.147,76.261C333.157,76.848 331.588,77.402 330.438,77.923C329.289,78.443 328.204,78.869 327.183,79.2C326.162,79.532 324.655,80.153 322.663,81.065C320.67,81.976 318.823,82.81 317.121,83.567C315.419,84.323 314.034,84.958 312.967,85.472C311.899,85.985 310.873,86.451 309.887,86.867C308.901,87.284 308.163,87.605 307.672,87.83C307.18,88.055 306.868,88.196 306.736,88.254C306.604,88.313 306.307,88.461 305.845,88.7C305.383,88.939 304.353,89.465 302.755,90.277C301.158,91.089 299.119,92.169 296.64,93.517C294.161,94.865 292.347,95.928 291.198,96.706C290.05,97.483 289.213,98.072 288.688,98.472C288.162,98.873 287.813,99.143 287.641,99.283C287.469,99.423 287.268,99.573 287.038,99.733C286.807,99.893 286.299,100.308 285.516,100.977C284.732,101.646 283.751,102.464 282.571,103.431C281.392,104.398 280.37,105.216 279.506,105.885C278.641,106.554 276.662,109.219 273.569,113.882C270.475,118.544 267.982,122.282 266.089,125.096C264.197,127.909 262.888,130.137 262.163,131.781C261.438,133.424 260.806,134.858 260.267,136.083C259.727,137.307 259.125,138.709 258.461,140.289C257.797,141.868 257.323,143.072 257.038,143.899C256.754,144.727 256.537,145.342 256.388,145.744C256.239,146.146 256.14,146.431 256.091,146.598C256.041,146.766 255.965,147 255.861,147.302C255.757,147.603 255.617,148.007 255.443,148.513C255.268,149.019 255.159,149.332 255.115,149.451C255.072,149.57 255.048,149.621 255.044,149.605C255.039,149.589 254.876,150.111 254.554,151.173C254.232,152.234 253.991,153.117 253.831,153.82C253.672,154.524 253.572,154.985 253.533,155.204C253.494,155.423 253.469,155.687 253.46,155.995C253.451,156.303 253.436,156.276 253.415,155.914C253.393,155.552 253.303,156.319 253.144,158.216C252.985,160.112 252.887,161.612 252.85,162.716C252.813,163.821 252.796,164.687 252.8,165.314C252.804,165.942 252.806,166.429 252.805,166.777C252.804,167.124 252.803,167.285 252.8,167.259C252.798,167.233 252.802,167.442 252.813,167.885C252.823,168.328 252.828,168.54 252.827,168.52C252.825,168.501 252.823,168.487 252.82,168.479C252.817,168.471 252.794,168.739 252.751,169.283C252.707,169.828 252.675,170.116 252.653,170.146C252.63,170.177 252.581,170.399 252.503,170.812C252.426,171.225 252.379,171.465 252.365,171.532C252.35,171.599 252.357,171.533 252.384,171.334C252.411,171.135 252.348,172.11 252.193,174.259C252.269,174.006 252.262,173.942 252.171,174.066C252.081,174.19 252.183,174.123 252.479,173.864C252.775,173.604 253.195,173.243 253.738,172.779C254.281,172.316 254.678,171.962 254.928,171.716C255.179,171.47 255.539,171.098 256.009,170.6C256.478,170.101 256.764,169.791 256.867,169.67C256.969,169.548 257.477,168.801 258.391,167.43C259.305,166.058 260.399,164.787 261.674,163.617C262.949,162.447 264.502,161.376 266.333,160.405C268.163,159.433 269.923,157.976 271.611,156.034C273.3,154.091 275.316,151.805 277.66,149.176C280.004,146.547 282.294,144.058 284.532,141.711C286.769,139.363 289.066,137.4 291.422,135.823C293.778,134.245 295.728,133.039 297.271,132.205C298.814,131.371 300.988,129.961 303.792,127.976C306.596,125.99 309.786,124.279 313.361,122.841C316.937,121.404 319.646,120.321 321.49,119.591C323.333,118.861 324.626,118.334 325.368,118.011C326.111,117.687 326.91,117.347 327.765,116.991C328.62,116.634 329.85,116.258 331.455,115.863C333.06,115.467 334.264,115.178 335.067,114.996C335.87,114.815 336.418,114.698 336.711,114.647C337.003,114.595 337.412,114.538 337.938,114.477C338.465,114.414 338.907,114.366 339.267,114.332C339.626,114.297 339.845,114.282 339.923,114.286C340.001,114.291 340.153,114.284 340.378,114.267C340.603,114.249 340.774,114.231 340.89,114.212C341.007,114.193 341.33,114.144 341.86,114.065C342.389,113.986 342.646,113.938 342.63,113.922C342.614,113.906 342.549,113.897 342.434,113.893C342.319,113.889 342.694,113.915 343.558,113.971C344.422,114.027 345.046,114.1 345.429,114.191" style="fill:none;fill-rule:nonzero;stroke:rgb(56,176,152);stroke-width:11.13px;stroke-linecap:round;stroke-miterlimit:4;"/>
            <path id="STROKE_bdeb22d5-c03a-49ce-929c-f20db82097a4" d="M356.95,143.135C356.767,143.56 357.037,142.112 357.761,138.789C357.991,139.513 358.076,139.822 358.016,139.717C358.489,139.762 358.689,143.327 358.617,150.413C358.545,157.498 358.397,162.93 358.171,166.708C357.947,170.487 357.819,173.261 357.789,175.031C357.759,176.801 357.77,179.597 357.821,183.42C357.873,187.243 357.705,191.473 357.319,196.112C356.933,200.75 356.723,204.758 356.69,208.136C356.657,211.514 356.643,214.088 356.651,215.859C356.658,217.63 356.678,219.9 356.711,222.669C356.744,225.439 356.717,227.972 356.632,230.27C356.546,232.568 356.335,235.954 355.998,240.43C355.661,244.906 355.5,248.928 355.514,252.497C355.528,256.067 355.322,259.722 354.897,263.463C354.471,267.205 354.045,270.003 353.621,271.856C353.196,273.71 352.97,277.875 352.943,284.351C352.916,290.827 352.921,295.697 352.957,298.961C352.993,302.224 353.066,304.669 353.175,306.296C353.284,307.922 353.566,309.345 354.022,310.565C354.025,310.605 354.163,310.761 354.438,311.035C354.713,311.308 354.884,311.466 354.951,311.509C355.017,311.552 355.13,311.621 355.288,311.716C355.447,311.811 355.644,311.924 355.879,312.055C356.115,312.186 356.37,312.291 356.643,312.371C356.917,312.45 357.122,312.551 357.26,312.672C357.398,312.792 358.629,313.042 360.953,313.42C363.277,313.797 365.033,314.036 366.22,314.135C367.408,314.234 368.336,314.25 369.006,314.184C369.676,314.118 370.92,314.172 372.739,314.347C374.558,314.522 375.941,314.687 376.89,314.843C377.839,314.999 378.772,314.923 379.691,314.616C380.609,314.309 381.348,314.072 381.909,313.906C382.47,313.739 382.81,313.613 382.931,313.526C383.052,313.44 383.208,313.317 383.4,313.159C383.591,313 383.766,312.842 383.924,312.683C384.081,312.525 384.154,312.439 384.141,312.424C384.128,312.41 384.117,312.407 384.108,312.415C384.1,312.423 384.109,312.406 384.136,312.364C384.163,312.321 384.472,311.879 385.063,311.039C385.654,310.198 386.184,308.494 386.653,305.928C387.122,303.362 387.474,301.14 387.711,299.26C387.947,297.38 388.091,294.696 388.143,291.206C388.194,287.717 388.256,284.897 388.328,282.746C388.4,280.596 388.419,278.817 388.383,277.409C388.347,276 388.367,274.098 388.442,271.701C388.517,269.305 388.464,266.033 388.284,261.885C388.105,257.738 387.904,254.122 387.681,251.037C387.458,247.951 387.338,245.639 387.321,244.099C387.304,242.559 387.301,241.319 387.311,240.379C387.322,239.439 387.313,237.337 387.284,234.074C387.255,230.812 387.238,227.821 387.232,225.103C387.226,222.384 387.23,220.248 387.243,218.692C387.257,217.137 387.234,215.121 387.175,212.646C387.116,210.17 387.107,206.464 387.148,201.526C387.19,196.59 387.276,192.691 387.406,189.831C387.536,186.972 387.665,184.957 387.792,183.788C387.92,182.619 387.996,181.774 388.021,181.253C388.045,180.733 388.089,179.687 388.153,178.117C388.216,176.547 388.357,174.581 388.575,172.219C388.794,169.857 388.968,168.113 389.099,166.985C389.23,165.857 389.323,165.059 389.378,164.59C389.432,164.121 389.469,163.606 389.487,163.045C389.505,162.484 389.513,162.091 389.511,161.865C389.509,161.639 389.513,161.525 389.522,161.523C389.531,161.521 389.521,161.575 389.492,161.684C389.462,161.793 389.492,160.825 389.581,158.78C389.67,156.734 389.838,154.794 390.086,152.96C390.333,151.125 390.504,149.663 390.6,148.573C390.696,147.483 390.764,146.545 390.805,145.76C390.846,144.975 390.89,144.327 390.936,143.814C390.983,143.301 391.017,142.896 391.036,142.599C391.056,142.301 391.063,142.15 391.057,142.147C391.052,142.144 391.053,142.143 391.062,142.145C391.071,142.148 391.055,142.165 391.015,142.197C390.975,142.23 391.038,142.012 391.202,141.545C391.366,141.078 391.495,140.797 391.591,140.7" style="fill:none;fill-rule:nonzero;stroke:rgb(56,176,152);stroke-width:11.13px;stroke-linecap:round;stroke-miterlimit:4;"/>
            <path id="STROKE_bec92fb5-2504-44ef-8049-fab9487a77c9" d="M346.766,71.846L345.843,71.846C345.673,71.307 345.604,71.113 345.636,71.262C345.546,70.44 345.52,70.151 345.557,70.396C345.557,69.473 345.557,69.147 345.557,69.418C345.562,68.708 345.57,68.419 345.581,68.551C345.761,68 345.836,67.034 345.804,65.652C345.773,64.27 345.731,63.201 345.679,62.447C345.627,61.693 345.741,61.208 346.023,60.993C346.305,60.778 346.429,60.681 346.395,60.702C346.361,60.723 346.338,60.73 346.326,60.724C346.313,60.717 346.399,60.672 346.585,60.587C346.77,60.503 347.117,60.371 347.624,60.194C348.131,60.017 348.386,59.938 348.389,59.959C349.051,59.771 349.319,59.693 349.193,59.725C349.091,59.588 350.294,59.403 352.803,59.17C355.312,58.937 357.166,58.799 358.365,58.758C359.564,58.718 360.423,58.693 360.942,58.686C361.46,58.678 362.175,58.654 363.085,58.614C363.995,58.574 364.789,58.539 365.469,58.509C366.148,58.48 366.675,58.437 367.049,58.383C367.423,58.328 367.741,58.302 368.002,58.305C368.264,58.309 368.516,58.31 368.757,58.309C368.998,58.308 369.466,58.312 370.161,58.321C370.857,58.331 371.596,58.326 372.379,58.307C373.162,58.288 374.219,58.283 375.549,58.292C376.88,58.301 378.06,58.369 379.09,58.496C380.12,58.623 380.903,58.7 381.438,58.726C381.973,58.752 382.501,58.768 383.024,58.773C383.546,58.777 384.012,58.776 384.423,58.768C384.832,58.761 385.112,58.762 385.262,58.773C385.411,58.783 386.001,58.808 387.032,58.848C388.063,58.888 388.885,58.903 389.497,58.894C390.109,58.884 390.698,58.881 391.264,58.884C391.829,58.887 392.429,58.888 393.062,58.887C393.696,58.886 394.115,58.885 394.32,58.883C394.525,58.882 394.697,58.887 394.838,58.9C394.978,58.913 395.667,58.9 396.904,58.861C398.141,58.823 398.778,58.794 398.815,58.775" style="fill:none;fill-rule:nonzero;stroke:rgb(56,176,152);stroke-width:11.13px;stroke-linecap:round;stroke-miterlimit:4;"/>
            <path id="STROKE_ea8274f3-9e4a-46f1-aa31-6b20af4a679b" d="M352.669,53.629C352.873,53.692 352.64,53.711 351.97,53.685C351.97,53.044 351.97,52.784 351.97,52.907C351.97,51.98 351.97,51.654 351.97,51.929C351.822,51.577 351.861,50.981 352.087,50.141C352.314,49.301 352.573,48.619 352.866,48.096C353.158,47.573 353.353,47.237 353.451,47.087C353.548,46.938 353.593,46.891 353.587,46.947C353.58,47.003 353.584,46.97 353.598,46.849C353.613,46.727 353.962,46.391 354.646,45.841C355.329,45.292 355.949,44.908 356.505,44.69C357.061,44.473 357.539,44.294 357.94,44.154C358.341,44.014 358.733,43.898 359.115,43.805C359.496,43.712 359.815,43.63 360.07,43.561C360.325,43.492 360.711,43.41 361.228,43.313C361.745,43.217 362.174,43.148 362.515,43.106C362.855,43.065 363.182,42.982 363.494,42.859C363.806,42.736 364.753,42.56 366.336,42.334C367.918,42.107 369.299,42.004 370.48,42.025C371.66,42.046 372.822,41.994 373.966,41.868C375.111,41.742 376.117,41.648 376.986,41.586C377.856,41.524 378.664,41.46 379.409,41.395C380.156,41.33 380.689,41.306 381.01,41.322C381.33,41.339 382.112,41.308 383.355,41.229C384.597,41.15 385.85,41.13 387.113,41.17C388.377,41.209 389.32,41.334 389.942,41.544C390.563,41.754 391.036,41.939 391.36,42.101C391.684,42.263 391.911,42.382 392.04,42.459C392.17,42.535 392.316,42.622 392.477,42.718C392.639,42.813 392.76,42.888 392.839,42.943C392.918,42.998 393.062,43.095 393.269,43.234C393.477,43.373 393.723,43.538 394.006,43.727C394.289,43.917 394.476,44.047 394.566,44.118C394.657,44.19 394.711,44.237 394.726,44.26C394.742,44.282 394.73,44.269 394.688,44.221C394.647,44.172 394.76,44.286 395.026,44.563C395.293,44.839 395.425,44.979 395.424,44.981C395.423,44.984 395.42,44.982 395.415,44.977C395.41,44.972 395.499,45.123 395.682,45.431C395.866,45.738 395.989,45.942 396.051,46.044C396.113,46.145 396.146,46.214 396.15,46.252C396.155,46.289 396.191,46.331 396.259,46.38C396.327,46.428 396.473,46.741 396.695,47.316C396.917,47.892 397.016,48.226 396.991,48.32C396.966,48.415 396.957,48.652 396.964,49.032C396.972,49.411 396.974,49.737 396.971,50.008C396.968,50.279 396.968,50.393 396.969,50.349C396.969,50.305 396.97,50.322 396.969,50.398C396.969,50.474 396.969,50.449 396.969,50.322C396.969,50.196 396.969,50.242 396.969,50.462L396.969,51.206C396.948,51.206 396.894,51.196 396.806,51.176C396.718,51.156 396.598,51.125 396.444,51.084" style="fill:none;fill-rule:nonzero;stroke:rgb(56,176,152);stroke-width:11.13px;stroke-linecap:round;stroke-miterlimit:4;"/>
            <path id="STROKE_3b8908ea-6317-401f-ac4e-571bdbca874c" d="M357.473,288.152L357.473,288.065C358.213,287.81 364.843,291.988 377.366,300.599C377.423,300.328 377.469,300.056 377.502,299.784" style="fill:none;fill-rule:nonzero;stroke:rgb(56,176,152);stroke-width:3.71px;stroke-linecap:round;stroke-miterlimit:4;"/>
            <path id="STROKE_2a6967ad-e571-4bac-9d7d-0eb1b964f9cf" d="M357.647,277.612C357.293,276.846 357.675,276.88 358.793,277.714C359.911,278.548 361.679,279.747 364.095,281.31C366.51,282.872 369.656,283.922 373.531,284.46C373.754,284.557 373.72,283.112 373.432,280.125C374.419,280.319 374.874,280.472 374.797,280.585C375.711,281.255 376.795,281.888 378.048,282.483C378.501,282.283 377.604,281.02 375.356,278.694C373.108,276.368 371.096,274.525 369.32,273.164C367.543,271.803 366.702,270.791 366.798,270.128C366.894,269.466 366.822,268.955 366.582,268.597" style="fill:none;fill-rule:nonzero;stroke:rgb(56,176,152);stroke-width:3.71px;stroke-linecap:round;stroke-miterlimit:4;"/>
            <path id="STROKE_7cfe7fa8-3e2c-4df4-8821-3f4f5850ed97" d="M366.309,264.437C366.825,264.408 367.219,264.339 367.49,264.229C367.761,264.118 368.47,264.464 369.616,265.267C370.762,266.07 371.733,266.851 372.531,267.612C373.329,268.373 374.2,269.118 375.144,269.846C375.892,269.423 371.897,264.014 363.157,253.62C361.674,252.693 366.215,255.911 376.782,263.275C377.139,262.374 373.077,255.786 364.596,243.513C363.873,242.919 365.561,243.642 369.659,245.679C369.678,245.396 367.27,240.845 362.437,232.028C363.561,232.061 367.946,234.93 375.591,240.635C375.533,240.577 375.099,240.044 374.288,239.036C373.477,238.027 372.803,237.208 372.266,236.578" style="fill:none;fill-rule:nonzero;stroke:rgb(56,176,152);stroke-width:3.71px;stroke-linecap:round;stroke-miterlimit:4;"/>
            <path id="STROKE_71dce831-01cf-4f2c-a909-cb0f4d2c3fc7" d="M362.512,223.767C362.487,223.764 362.692,223.68 363.127,223.513C363.562,223.347 363.788,223.335 363.805,223.476C363.823,223.618 364.042,223.474 364.462,223.045C364.882,222.615 369.585,226.133 378.569,233.597C378.628,233.234 378.417,232.587 377.937,231.656C377.457,230.725 377.006,229.927 376.584,229.263" style="fill:none;fill-rule:nonzero;stroke:rgb(56,176,152);stroke-width:3.71px;stroke-linecap:round;stroke-miterlimit:4;"/>
            <path id="STROKE_6814265a-5b07-4e7d-8f97-8f0b88dd5bcd" d="M365.49,207.992C365.566,207.634 366.401,207.842 367.993,208.618C369.585,209.394 371.671,211.59 374.251,215.204C374.16,214.996 373.98,214.704 373.711,214.328C373.442,213.953 373.084,213.493 372.638,212.95" style="fill:none;fill-rule:nonzero;stroke:rgb(56,176,152);stroke-width:3.71px;stroke-linecap:round;stroke-miterlimit:4;"/>
            <path id="STROKE_ea469fe8-bb87-4165-a9b3-8c9a35ba4353" d="M362.512,187.068C363.543,186.666 367.034,190.601 372.985,198.873C372.371,197.64 372.119,197.126 372.23,197.332C372.341,197.538 371.915,197.006 370.953,195.735C369.991,194.464 369.287,193.557 368.841,193.014" style="fill:none;fill-rule:nonzero;stroke:rgb(56,176,152);stroke-width:3.71px;stroke-linecap:round;stroke-miterlimit:4;"/>
            <path id="STROKE_bf4692c8-ce39-4840-87a6-7d0524a4365b" d="M366.234,188.784C366.143,188.634 365.961,188.212 365.688,187.519C366.913,186.994 372.142,191.23 381.374,200.226C380.972,199.847 380.128,197.492 378.843,193.161C380.267,192.976 383.485,195.002 388.497,199.238C388.64,199.484 387.979,198.802 386.513,197.194C385.048,195.586 384.029,194.436 383.459,193.742" style="fill:none;fill-rule:nonzero;stroke:rgb(56,176,152);stroke-width:3.71px;stroke-linecap:round;stroke-miterlimit:4;"/>
            <path id="STROKE_c07edd81-247b-4641-b8a9-6b9bcf91916a" d="M362.263,168.224C363.029,168.028 363.389,167.929 363.345,167.928C363.301,167.927 363.453,167.943 363.801,167.975C364.148,168.007 364.495,168.107 364.842,168.277C365.189,168.446 365.366,168.582 365.374,168.686C365.383,168.79 365.432,168.879 365.522,168.952C365.613,169.025 365.888,169.383 366.348,170.024C366.809,170.665 367.309,171.389 367.848,172.194C366.895,172.19 364.852,168.327 361.717,160.605C361.965,160.273 363.335,160.965 365.825,162.679C368.316,164.392 371.34,167.115 374.899,170.847C378.458,174.579 381.667,178.391 384.526,182.283C384.198,181.382 376.232,170.951 360.625,150.992C361.444,150.518 367.368,156.262 378.395,168.224C377.932,167.349 375.905,164.539 372.316,159.796C368.727,155.052 365.583,149.338 362.884,142.654C363.427,140.869 369.557,144.851 381.274,154.598C381.274,154.39 381.171,153.948 380.964,153.272C380.758,152.596 380.505,152.015 380.207,151.53" style="fill:none;fill-rule:nonzero;stroke:rgb(56,176,152);stroke-width:3.47px;stroke-linecap:round;stroke-miterlimit:4;"/>
            <path id="STROKE_55b389ec-a4d3-4198-aadd-b25f30c1a456" d="M363.157,45.124C362.6,44.217 363.725,46.234 366.532,51.174L366.755,51.174C366.764,51.135 366.678,49.09 366.495,45.037C365.348,43.944 369.691,45.071 379.525,48.417C379.728,48.067 379.624,46.64 379.215,44.135C379.843,44.308 381.994,44.866 385.667,45.808C386.581,44.868 386.938,44.498 386.738,44.698C386.537,44.899 386.712,44.88 387.262,44.641C387.811,44.402 389,44.854 390.829,45.995C392.657,47.136 394.109,48.111 395.185,48.92C396.261,49.729 396.976,50.238 397.332,50.446" style="fill:none;fill-rule:nonzero;stroke:rgb(56,176,152);stroke-width:3.71px;stroke-linecap:round;stroke-miterlimit:4;"/>
        </g>
        <g transform="matrix(0.645831,0,0,0.645831,335.028,251.285)">
            <path id="STROKE_f213d9eb-e777-4f1a-af3d-daccf370ca531" serif:id="STROKE_f213d9eb-e777-4f1a-af3d-daccf370ca53" d="M345.54,72.357C346.002,80.799 346.231,85.8 346.228,87.359C346.226,88.919 346.233,92.353 346.249,97.661C346.266,102.97 346.269,113.57 346.257,129.461C346.198,129.605 346.221,129.335 346.325,128.65C346.428,127.966 346.555,127.22 346.704,126.412" style="fill:none;fill-rule:nonzero;stroke:rgb(56,176,152);stroke-width:11.13px;stroke-linecap:round;stroke-miterlimit:4;"/>
            <path id="STROKE_5516e1df-93e1-4f6a-ad99-238958fad8e11" serif:id="STROKE_5516e1df-93e1-4f6a-ad99-238958fad8e1" d="M399.864,64.642C400.148,65.597 400.382,66.467 400.568,67.253C400.754,68.039 400.879,68.82 400.944,69.595C401.01,70.371 401.148,71.099 401.36,71.777C401.572,72.455 401.853,76.533 402.204,84.011C402.556,91.49 402.756,98.695 402.806,105.627C402.856,112.558 402.875,117.424 402.862,120.225C402.848,123.026 402.793,125.466 402.696,127.546C402.598,129.626 402.57,132.167 402.61,135.168C402.039,135.283 401.509,135.211 401.02,134.951C400.532,134.692 399.98,134.36 399.364,133.956" style="fill:none;fill-rule:nonzero;stroke:rgb(56,176,152);stroke-width:11.13px;stroke-linecap:round;stroke-miterlimit:4;"/>
            <path id="STROKE_0507becb-16b5-4c8c-b21c-ae15e9791d171" serif:id="STROKE_0507becb-16b5-4c8c-b21c-ae15e9791d17" d="M345.473,132.901C345.628,132.901 345.218,132.901 344.242,132.901C344.727,134.609 349.503,135.803 358.571,136.484C367.639,137.164 374.765,137.337 379.948,137.001C385.132,136.665 389.065,136.261 391.749,135.791C394.434,135.32 396.915,134.131 399.193,132.224C401.471,130.317 402.61,129.123 402.61,128.64" style="fill:none;fill-rule:nonzero;stroke:rgb(56,176,152);stroke-width:11.13px;stroke-linecap:round;stroke-miterlimit:4;"/>
            <path id="STROKE_bc17c04f-f581-461b-a05b-871ba7d288281" serif:id="STROKE_bc17c04f-f581-461b-a05b-871ba7d28828" d="M388.281,140.147L388.284,139.82C389.077,139.563 389.971,139.079 390.964,138.367C391.956,137.655 392.723,136.992 393.264,136.38" style="fill:none;fill-rule:nonzero;stroke:rgb(56,176,152);stroke-width:11.13px;stroke-linecap:round;stroke-miterlimit:4;"/>
            <path id="STROKE_ce065f1f-41c4-40ec-9365-4cf8f9467dc31" serif:id="STROKE_ce065f1f-41c4-40ec-9365-4cf8f9467dc3" d="M405.719,67.62L405.083,67.62C404.395,67.669 405.07,67.643 407.11,67.541C409.149,67.44 411.04,67.384 412.782,67.373C414.524,67.363 415.873,67.356 416.83,67.353C417.787,67.349 418.61,67.359 419.301,67.382C419.991,67.405 420.57,67.498 421.037,67.66C421.504,67.822 422.059,67.952 422.703,68.05C423.346,68.147 424.292,68.373 425.54,68.729C426.788,69.085 427.951,69.455 429.029,69.838C430.108,70.221 430.886,70.483 431.363,70.623C431.839,70.763 432.333,70.913 432.843,71.074C433.353,71.234 433.835,71.376 434.289,71.499C434.742,71.622 434.911,71.646 434.795,71.57C434.679,71.494 435.603,71.768 437.57,72.39C439.536,73.013 441.659,73.742 443.941,74.575C446.222,75.41 450.226,76.948 455.952,79.192C461.679,81.435 466.117,83.23 469.267,84.576C472.417,85.923 474.593,86.914 475.793,87.55C476.993,88.186 478.414,89 480.057,89.992C481.7,90.985 483.055,91.879 484.122,92.676C485.188,93.472 486.567,94.503 488.256,95.767C489.946,97.033 491.609,98.284 493.248,99.522C494.886,100.761 496.118,101.709 496.944,102.369C497.771,103.028 498.821,103.908 500.096,105.01C501.371,106.113 502.316,106.956 502.931,107.541C503.547,108.125 504.018,108.607 504.345,108.986C504.672,109.364 504.835,109.552 504.834,109.548C504.833,109.544 504.826,109.533 504.813,109.516C504.801,109.498 504.942,109.668 505.237,110.024C505.532,110.38 505.712,110.6 505.775,110.683C505.838,110.766 505.843,110.777 505.788,110.716C505.734,110.656 505.836,110.776 506.095,111.077C506.354,111.378 506.797,111.928 507.424,112.727C508.051,113.526 508.504,114.204 508.782,114.76C509.059,115.316 509.275,115.791 509.428,116.186C509.581,116.58 509.669,116.826 509.69,116.925C509.712,117.023 509.882,117.48 510.199,118.295C510.516,119.111 510.872,120.245 511.267,121.696C511.662,123.148 511.996,124.377 512.269,125.386C512.542,126.394 512.841,127.338 513.166,128.219C513.491,129.099 513.665,129.59 513.69,129.692C513.715,129.794 513.723,129.811 513.714,129.742C513.705,129.674 513.78,129.868 513.941,130.324C514.101,130.779 514.253,131.25 514.396,131.734C514.539,132.219 514.695,132.782 514.865,133.424C515.035,134.066 515.158,134.53 515.234,134.816C515.31,135.102 515.391,135.44 515.476,135.83C515.561,136.22 515.633,136.513 515.692,136.71C515.751,136.908 515.79,137.044 515.808,137.118C515.827,137.193 515.894,137.429 516.011,137.829C516.127,138.228 516.249,138.648 516.377,139.089C516.505,139.53 516.621,139.922 516.727,140.264C516.833,140.606 517.025,141.36 517.303,142.526C517.581,143.692 517.799,144.615 517.955,145.294C518.112,145.973 518.236,146.801 518.327,147.779C518.268,147.813 517.983,147.669 517.471,147.345C516.959,147.022 516.229,146.543 515.283,145.911C514.336,145.278 513.493,144.684 512.753,144.13C512.013,143.576 511.415,143.128 510.959,142.787C510.502,142.446 509.878,141.973 509.088,141.368C508.298,140.762 507.555,140.186 506.859,139.638C506.164,139.091 505.611,138.677 505.201,138.395C504.79,138.114 504.161,137.669 503.316,137.059C502.47,136.449 501.557,135.823 500.578,135.18C499.599,134.538 499.061,134.186 498.964,134.124C498.867,134.062 498.089,133.562 496.63,132.624C495.172,131.686 493.676,130.672 492.141,129.584C490.607,128.495 489.253,127.586 488.079,126.858C486.905,126.13 486.017,125.605 485.414,125.283C484.812,124.962 483.928,124.508 482.763,123.921C481.598,123.334 478.973,121.721 474.888,119.081C470.803,116.442 467.347,114.484 464.52,113.207C461.694,111.93 459.45,110.86 457.79,109.999C456.13,109.137 452.749,108.244 447.649,107.318C442.548,106.393 438.163,105.688 434.494,105.203C430.825,104.719 428.622,104.449 427.886,104.394C427.149,104.34 426.075,104.221 424.663,104.039C423.251,103.858 421.922,103.716 420.674,103.615C419.426,103.514 418.611,103.446 418.23,103.412C417.849,103.377 417.397,103.353 416.874,103.342C416.351,103.33 415.902,103.311 415.526,103.284C415.15,103.258 414.934,103.248 414.877,103.254C414.82,103.259 414.657,103.261 414.387,103.259C414.118,103.257 413.856,103.256 413.602,103.257C413.348,103.258 413.211,103.258 413.19,103.258C413.169,103.257 413.08,103.257 412.924,103.258L405.719,103.258C405.776,103.053 405.834,102.847 405.891,102.642" style="fill:none;fill-rule:nonzero;stroke:rgb(56,176,152);stroke-width:11.13px;stroke-linecap:round;stroke-miterlimit:4;"/>
            <path id="STROKE_ee31bed9-0328-4026-a056-1eb389bdc3d61" serif:id="STROKE_ee31bed9-0328-4026-a056-1eb389bdc3d6" d="M341.785,77.751C341.806,77.648 341.782,77.055 341.711,75.974L341.515,75.974L341.515,75.889C340.969,75.811 340.749,75.783 340.855,75.803L339.352,75.803C339.276,75.803 339.345,75.803 339.559,75.803C339.885,75.977 339.729,75.95 339.089,75.722C338.45,75.494 337.136,75.673 335.147,76.261C333.157,76.848 331.588,77.402 330.438,77.923C329.289,78.443 328.204,78.869 327.183,79.2C326.162,79.532 324.655,80.153 322.663,81.065C320.67,81.976 318.823,82.81 317.121,83.567C315.419,84.323 314.034,84.958 312.967,85.472C311.899,85.985 310.873,86.451 309.887,86.867C308.901,87.284 308.163,87.605 307.672,87.83C307.18,88.055 306.868,88.196 306.736,88.254C306.604,88.313 306.307,88.461 305.845,88.7C305.383,88.939 304.353,89.465 302.755,90.277C301.158,91.089 299.119,92.169 296.64,93.517C294.161,94.865 292.347,95.928 291.198,96.706C290.05,97.483 289.213,98.072 288.688,98.472C288.162,98.873 287.813,99.143 287.641,99.283C287.469,99.423 287.268,99.573 287.038,99.733C286.807,99.893 286.299,100.308 285.516,100.977C284.732,101.646 283.751,102.464 282.571,103.431C281.392,104.398 280.37,105.216 279.506,105.885C278.641,106.554 276.662,109.219 273.569,113.882C270.475,118.544 267.982,122.282 266.089,125.096C264.197,127.909 262.888,130.137 262.163,131.781C261.438,133.424 260.806,134.858 260.267,136.083C259.727,137.307 259.125,138.709 258.461,140.289C257.797,141.868 257.323,143.072 257.038,143.899C256.754,144.727 256.537,145.342 256.388,145.744C256.239,146.146 256.14,146.431 256.091,146.598C256.041,146.766 255.965,147 255.861,147.302C255.757,147.603 255.617,148.007 255.443,148.513C255.268,149.019 255.159,149.332 255.115,149.451C255.072,149.57 255.048,149.621 255.044,149.605C255.039,149.589 254.876,150.111 254.554,151.173C254.232,152.234 253.991,153.117 253.831,153.82C253.672,154.524 253.572,154.985 253.533,155.204C253.494,155.423 253.469,155.687 253.46,155.995C253.451,156.303 253.436,156.276 253.415,155.914C253.393,155.552 253.303,156.319 253.144,158.216C252.985,160.112 252.887,161.612 252.85,162.716C252.813,163.821 252.796,164.687 252.8,165.314C252.804,165.942 252.806,166.429 252.805,166.777C252.804,167.124 252.803,167.285 252.8,167.259C252.798,167.233 252.802,167.442 252.813,167.885C252.823,168.328 252.828,168.54 252.827,168.52C252.825,168.501 252.823,168.487 252.82,168.479C252.817,168.471 252.794,168.739 252.751,169.283C252.707,169.828 252.675,170.116 252.653,170.146C252.63,170.177 252.581,170.399 252.503,170.812C252.426,171.225 252.379,171.465 252.365,171.532C252.35,171.599 252.357,171.533 252.384,171.334C252.411,171.135 252.348,172.11 252.193,174.259C252.269,174.006 252.262,173.942 252.171,174.066C252.081,174.19 252.183,174.123 252.479,173.864C252.775,173.604 253.195,173.243 253.738,172.779C254.281,172.316 254.678,171.962 254.928,171.716C255.179,171.47 255.539,171.098 256.009,170.6C256.478,170.101 256.764,169.791 256.867,169.67C256.969,169.548 257.477,168.801 258.391,167.43C259.305,166.058 260.399,164.787 261.674,163.617C262.949,162.447 264.502,161.376 266.333,160.405C268.163,159.433 269.923,157.976 271.611,156.034C273.3,154.091 275.316,151.805 277.66,149.176C280.004,146.547 282.294,144.058 284.532,141.711C286.769,139.363 289.066,137.4 291.422,135.823C293.778,134.245 295.728,133.039 297.271,132.205C298.814,131.371 300.988,129.961 303.792,127.976C306.596,125.99 309.786,124.279 313.361,122.841C316.937,121.404 319.646,120.321 321.49,119.591C323.333,118.861 324.626,118.334 325.368,118.011C326.111,117.687 326.91,117.347 327.765,116.991C328.62,116.634 329.85,116.258 331.455,115.863C333.06,115.467 334.264,115.178 335.067,114.996C335.87,114.815 336.418,114.698 336.711,114.647C337.003,114.595 337.412,114.538 337.938,114.477C338.465,114.414 338.907,114.366 339.267,114.332C339.626,114.297 339.845,114.282 339.923,114.286C340.001,114.291 340.153,114.284 340.378,114.267C340.603,114.249 340.774,114.231 340.89,114.212C341.007,114.193 341.33,114.144 341.86,114.065C342.389,113.986 342.646,113.938 342.63,113.922C342.614,113.906 342.549,113.897 342.434,113.893C342.319,113.889 342.694,113.915 343.558,113.971C344.422,114.027 345.046,114.1 345.429,114.191" style="fill:none;fill-rule:nonzero;stroke:rgb(56,176,152);stroke-width:11.13px;stroke-linecap:round;stroke-miterlimit:4;"/>
            <path id="STROKE_bdeb22d5-c03a-49ce-929c-f20db82097a41" serif:id="STROKE_bdeb22d5-c03a-49ce-929c-f20db82097a4" d="M356.95,143.135C356.767,143.56 357.037,142.112 357.761,138.789C357.991,139.513 358.076,139.822 358.016,139.717C358.489,139.762 358.689,143.327 358.617,150.413C358.545,157.498 358.397,162.93 358.171,166.708C357.947,170.487 357.819,173.261 357.789,175.031C357.759,176.801 357.77,179.597 357.821,183.42C357.873,187.243 357.705,191.473 357.319,196.112C356.933,200.75 356.723,204.758 356.69,208.136C356.657,211.514 356.643,214.088 356.651,215.859C356.658,217.63 356.678,219.9 356.711,222.669C356.744,225.439 356.717,227.972 356.632,230.27C356.546,232.568 356.335,235.954 355.998,240.43C355.661,244.906 355.5,248.928 355.514,252.497C355.528,256.067 355.322,259.722 354.897,263.463C354.471,267.205 354.045,270.003 353.621,271.856C353.196,273.71 352.97,277.875 352.943,284.351C352.916,290.827 352.921,295.697 352.957,298.961C352.993,302.224 353.066,304.669 353.175,306.296C353.284,307.922 353.566,309.345 354.022,310.565C354.025,310.605 354.163,310.761 354.438,311.035C354.713,311.308 354.884,311.466 354.951,311.509C355.017,311.552 355.13,311.621 355.288,311.716C355.447,311.811 355.644,311.924 355.879,312.055C356.115,312.186 356.37,312.291 356.643,312.371C356.917,312.45 357.122,312.551 357.26,312.672C357.398,312.792 358.629,313.042 360.953,313.42C363.277,313.797 365.033,314.036 366.22,314.135C367.408,314.234 368.336,314.25 369.006,314.184C369.676,314.118 370.92,314.172 372.739,314.347C374.558,314.522 375.941,314.687 376.89,314.843C377.839,314.999 378.772,314.923 379.691,314.616C380.609,314.309 381.348,314.072 381.909,313.906C382.47,313.739 382.81,313.613 382.931,313.526C383.052,313.44 383.208,313.317 383.4,313.159C383.591,313 383.766,312.842 383.924,312.683C384.081,312.525 384.154,312.439 384.141,312.424C384.128,312.41 384.117,312.407 384.108,312.415C384.1,312.423 384.109,312.406 384.136,312.364C384.163,312.321 384.472,311.879 385.063,311.039C385.654,310.198 386.184,308.494 386.653,305.928C387.122,303.362 387.474,301.14 387.711,299.26C387.947,297.38 388.091,294.696 388.143,291.206C388.194,287.717 388.256,284.897 388.328,282.746C388.4,280.596 388.419,278.817 388.383,277.409C388.347,276 388.367,274.098 388.442,271.701C388.517,269.305 388.464,266.033 388.284,261.885C388.105,257.738 387.904,254.122 387.681,251.037C387.458,247.951 387.338,245.639 387.321,244.099C387.304,242.559 387.301,241.319 387.311,240.379C387.322,239.439 387.313,237.337 387.284,234.074C387.255,230.812 387.238,227.821 387.232,225.103C387.226,222.384 387.23,220.248 387.243,218.692C387.257,217.137 387.234,215.121 387.175,212.646C387.116,210.17 387.107,206.464 387.148,201.526C387.19,196.59 387.276,192.691 387.406,189.831C387.536,186.972 387.665,184.957 387.792,183.788C387.92,182.619 387.996,181.774 388.021,181.253C388.045,180.733 388.089,179.687 388.153,178.117C388.216,176.547 388.357,174.581 388.575,172.219C388.794,169.857 388.968,168.113 389.099,166.985C389.23,165.857 389.323,165.059 389.378,164.59C389.432,164.121 389.469,163.606 389.487,163.045C389.505,162.484 389.513,162.091 389.511,161.865C389.509,161.639 389.513,161.525 389.522,161.523C389.531,161.521 389.521,161.575 389.492,161.684C389.462,161.793 389.492,160.825 389.581,158.78C389.67,156.734 389.838,154.794 390.086,152.96C390.333,151.125 390.504,149.663 390.6,148.573C390.696,147.483 390.764,146.545 390.805,145.76C390.846,144.975 390.89,144.327 390.936,143.814C390.983,143.301 391.017,142.896 391.036,142.599C391.056,142.301 391.063,142.15 391.057,142.147C391.052,142.144 391.053,142.143 391.062,142.145C391.071,142.148 391.055,142.165 391.015,142.197C390.975,142.23 391.038,142.012 391.202,141.545C391.366,141.078 391.495,140.797 391.591,140.7" style="fill:none;fill-rule:nonzero;stroke:rgb(56,176,152);stroke-width:11.13px;stroke-linecap:round;stroke-miterlimit:4;"/>
            <path id="STROKE_bec92fb5-2504-44ef-8049-fab9487a77c91" serif:id="STROKE_bec92fb5-2504-44ef-8049-fab9487a77c9" d="M346.766,71.846L345.843,71.846C345.673,71.307 345.604,71.113 345.636,71.262C345.546,70.44 345.52,70.151 345.557,70.396C345.557,69.473 345.557,69.147 345.557,69.418C345.562,68.708 345.57,68.419 345.581,68.551C345.761,68 345.836,67.034 345.804,65.652C345.773,64.27 345.731,63.201 345.679,62.447C345.627,61.693 345.741,61.208 346.023,60.993C346.305,60.778 346.429,60.681 346.395,60.702C346.361,60.723 346.338,60.73 346.326,60.724C346.313,60.717 346.399,60.672 346.585,60.587C346.77,60.503 347.117,60.371 347.624,60.194C348.131,60.017 348.386,59.938 348.389,59.959C349.051,59.771 349.319,59.693 349.193,59.725C349.091,59.588 350.294,59.403 352.803,59.17C355.312,58.937 357.166,58.799 358.365,58.758C359.564,58.718 360.423,58.693 360.942,58.686C361.46,58.678 362.175,58.654 363.085,58.614C363.995,58.574 364.789,58.539 365.469,58.509C366.148,58.48 366.675,58.437 367.049,58.383C367.423,58.328 367.741,58.302 368.002,58.305C368.264,58.309 368.516,58.31 368.757,58.309C368.998,58.308 369.466,58.312 370.161,58.321C370.857,58.331 371.596,58.326 372.379,58.307C373.162,58.288 374.219,58.283 375.549,58.292C376.88,58.301 378.06,58.369 379.09,58.496C380.12,58.623 380.903,58.7 381.438,58.726C381.973,58.752 382.501,58.768 383.024,58.773C383.546,58.777 384.012,58.776 384.423,58.768C384.832,58.761 385.112,58.762 385.262,58.773C385.411,58.783 386.001,58.808 387.032,58.848C388.063,58.888 388.885,58.903 389.497,58.894C390.109,58.884 390.698,58.881 391.264,58.884C391.829,58.887 392.429,58.888 393.062,58.887C393.696,58.886 394.115,58.885 394.32,58.883C394.525,58.882 394.697,58.887 394.838,58.9C394.978,58.913 395.667,58.9 396.904,58.861C398.141,58.823 398.778,58.794 398.815,58.775" style="fill:none;fill-rule:nonzero;stroke:rgb(56,176,152);stroke-width:11.13px;stroke-linecap:round;stroke-miterlimit:4;"/>
            <path id="STROKE_ea8274f3-9e4a-46f1-aa31-6b20af4a679b1" serif:id="STROKE_ea8274f3-9e4a-46f1-aa31-6b20af4a679b" d="M352.669,53.629C352.873,53.692 352.64,53.711 351.97,53.685C351.97,53.044 351.97,52.784 351.97,52.907C351.97,51.98 351.97,51.654 351.97,51.929C351.822,51.577 351.861,50.981 352.087,50.141C352.314,49.301 352.573,48.619 352.866,48.096C353.158,47.573 353.353,47.237 353.451,47.087C353.548,46.938 353.593,46.891 353.587,46.947C353.58,47.003 353.584,46.97 353.598,46.849C353.613,46.727 353.962,46.391 354.646,45.841C355.329,45.292 355.949,44.908 356.505,44.69C357.061,44.473 357.539,44.294 357.94,44.154C358.341,44.014 358.733,43.898 359.115,43.805C359.496,43.712 359.815,43.63 360.07,43.561C360.325,43.492 360.711,43.41 361.228,43.313C361.745,43.217 362.174,43.148 362.515,43.106C362.855,43.065 363.182,42.982 363.494,42.859C363.806,42.736 364.753,42.56 366.336,42.334C367.918,42.107 369.299,42.004 370.48,42.025C371.66,42.046 372.822,41.994 373.966,41.868C375.111,41.742 376.117,41.648 376.986,41.586C377.856,41.524 378.664,41.46 379.409,41.395C380.156,41.33 380.689,41.306 381.01,41.322C381.33,41.339 382.112,41.308 383.355,41.229C384.597,41.15 385.85,41.13 387.113,41.17C388.377,41.209 389.32,41.334 389.942,41.544C390.563,41.754 391.036,41.939 391.36,42.101C391.684,42.263 391.911,42.382 392.04,42.459C392.17,42.535 392.316,42.622 392.477,42.718C392.639,42.813 392.76,42.888 392.839,42.943C392.918,42.998 393.062,43.095 393.269,43.234C393.477,43.373 393.723,43.538 394.006,43.727C394.289,43.917 394.476,44.047 394.566,44.118C394.657,44.19 394.711,44.237 394.726,44.26C394.742,44.282 394.73,44.269 394.688,44.221C394.647,44.172 394.76,44.286 395.026,44.563C395.293,44.839 395.425,44.979 395.424,44.981C395.423,44.984 395.42,44.982 395.415,44.977C395.41,44.972 395.499,45.123 395.682,45.431C395.866,45.738 395.989,45.942 396.051,46.044C396.113,46.145 396.146,46.214 396.15,46.252C396.155,46.289 396.191,46.331 396.259,46.38C396.327,46.428 396.473,46.741 396.695,47.316C396.917,47.892 397.016,48.226 396.991,48.32C396.966,48.415 396.957,48.652 396.964,49.032C396.972,49.411 396.974,49.737 396.971,50.008C396.968,50.279 396.968,50.393 396.969,50.349C396.969,50.305 396.97,50.322 396.969,50.398C396.969,50.474 396.969,50.449 396.969,50.322C396.969,50.196 396.969,50.242 396.969,50.462L396.969,51.206C396.948,51.206 396.894,51.196 396.806,51.176C396.718,51.156 396.598,51.125 396.444,51.084" style="fill:none;fill-rule:nonzero;stroke:rgb(56,176,152);stroke-width:11.13px;stroke-linecap:round;stroke-miterlimit:4;"/>
            <path id="STROKE_3b8908ea-6317-401f-ac4e-571bdbca874c1" serif:id="STROKE_3b8908ea-6317-401f-ac4e-571bdbca874c" d="M357.473,288.152L357.473,288.065C358.213,287.81 364.843,291.988 377.366,300.599C377.423,300.328 377.469,300.056 377.502,299.784" style="fill:none;fill-rule:nonzero;stroke:rgb(56,176,152);stroke-width:3.71px;stroke-linecap:round;stroke-miterlimit:4;"/>
            <path id="STROKE_2a6967ad-e571-4bac-9d7d-0eb1b964f9cf1" serif:id="STROKE_2a6967ad-e571-4bac-9d7d-0eb1b964f9cf" d="M357.647,277.612C357.293,276.846 357.675,276.88 358.793,277.714C359.911,278.548 361.679,279.747 364.095,281.31C366.51,282.872 369.656,283.922 373.531,284.46C373.754,284.557 373.72,283.112 373.432,280.125C374.419,280.319 374.874,280.472 374.797,280.585C375.711,281.255 376.795,281.888 378.048,282.483C378.501,282.283 377.604,281.02 375.356,278.694C373.108,276.368 371.096,274.525 369.32,273.164C367.543,271.803 366.702,270.791 366.798,270.128C366.894,269.466 366.822,268.955 366.582,268.597" style="fill:none;fill-rule:nonzero;stroke:rgb(56,176,152);stroke-width:3.71px;stroke-linecap:round;stroke-miterlimit:4;"/>
            <path id="STROKE_7cfe7fa8-3e2c-4df4-8821-3f4f5850ed971" serif:id="STROKE_7cfe7fa8-3e2c-4df4-8821-3f4f5850ed97" d="M366.309,264.437C366.825,264.408 367.219,264.339 367.49,264.229C367.761,264.118 368.47,264.464 369.616,265.267C370.762,266.07 371.733,266.851 372.531,267.612C373.329,268.373 374.2,269.118 375.144,269.846C375.892,269.423 371.897,264.014 363.157,253.62C361.674,252.693 366.215,255.911 376.782,263.275C377.139,262.374 373.077,255.786 364.596,243.513C363.873,242.919 365.561,243.642 369.659,245.679C369.678,245.396 367.27,240.845 362.437,232.028C363.561,232.061 367.946,234.93 375.591,240.635C375.533,240.577 375.099,240.044 374.288,239.036C373.477,238.027 372.803,237.208 372.266,236.578" style="fill:none;fill-rule:nonzero;stroke:rgb(56,176,152);stroke-width:3.71px;stroke-linecap:round;stroke-miterlimit:4;"/>
            <path id="STROKE_71dce831-01cf-4f2c-a909-cb0f4d2c3fc71" serif:id="STROKE_71dce831-01cf-4f2c-a909-cb0f4d2c3fc7" d="M362.512,223.767C362.487,223.764 362.692,223.68 363.127,223.513C363.562,223.347 363.788,223.335 363.805,223.476C363.823,223.618 364.042,223.474 364.462,223.045C364.882,222.615 369.585,226.133 378.569,233.597C378.628,233.234 378.417,232.587 377.937,231.656C377.457,230.725 377.006,229.927 376.584,229.263" style="fill:none;fill-rule:nonzero;stroke:rgb(56,176,152);stroke-width:3.71px;stroke-linecap:round;stroke-miterlimit:4;"/>
            <path id="STROKE_6814265a-5b07-4e7d-8f97-8f0b88dd5bcd1" serif:id="STROKE_6814265a-5b07-4e7d-8f97-8f0b88dd5bcd" d="M365.49,207.992C365.566,207.634 366.401,207.842 367.993,208.618C369.585,209.394 371.671,211.59 374.251,215.204C374.16,214.996 373.98,214.704 373.711,214.328C373.442,213.953 373.084,213.493 372.638,212.95" style="fill:none;fill-rule:nonzero;stroke:rgb(56,176,152);stroke-width:3.71px;stroke-linecap:round;stroke-miterlimit:4;"/>
            <path id="STROKE_ea469fe8-bb87-4165-a9b3-8c9a35ba43531" serif:id="STROKE_ea469fe8-bb87-4165-a9b3-8c9a35ba4353" d="M362.512,187.068C363.543,186.666 367.034,190.601 372.985,198.873C372.371,197.64 372.119,197.126 372.23,197.332C372.341,197.538 371.915,197.006 370.953,195.735C369.991,194.464 369.287,193.557 368.841,193.014" style="fill:none;fill-rule:nonzero;stroke:rgb(56,176,152);stroke-width:3.71px;stroke-linecap:round;stroke-miterlimit:4;"/>
            <path id="STROKE_bf4692c8-ce39-4840-87a6-7d0524a4365b1" serif:id="STROKE_bf4692c8-ce39-4840-87a6-7d0524a4365b" d="M366.234,188.784C366.143,188.634 365.961,188.212 365.688,187.519C366.913,186.994 372.142,191.23 381.374,200.226C380.972,199.847 380.128,197.492 378.843,193.161C380.267,192.976 383.485,195.002 388.497,199.238C388.64,199.484 387.979,198.802 386.513,197.194C385.048,195.586 384.029,194.436 383.459,193.742" style="fill:none;fill-rule:nonzero;stroke:rgb(56,176,152);stroke-width:3.71px;stroke-linecap:round;stroke-miterlimit:4;"/>
            <path id="STROKE_c07edd81-247b-4641-b8a9-6b9bcf91916a1" serif:id="STROKE_c07edd81-247b-4641-b8a9-6b9bcf91916a" d="M362.263,168.224C363.029,168.028 363.389,167.929 363.345,167.928C363.301,167.927 363.453,167.943 363.801,167.975C364.148,168.007 364.495,168.107 364.842,168.277C365.189,168.446 365.366,168.582 365.374,168.686C365.383,168.79 365.432,168.879 365.522,168.952C365.613,169.025 365.888,169.383 366.348,170.024C366.809,170.665 367.309,171.389 367.848,172.194C366.895,172.19 364.852,168.327 361.717,160.605C361.965,160.273 363.335,160.965 365.825,162.679C368.316,164.392 371.34,167.115 374.899,170.847C378.458,174.579 381.667,178.391 384.526,182.283C384.198,181.382 376.232,170.951 360.625,150.992C361.444,150.518 367.368,156.262 378.395,168.224C377.932,167.349 375.905,164.539 372.316,159.796C368.727,155.052 365.583,149.338 362.884,142.654C363.427,140.869 369.557,144.851 381.274,154.598C381.274,154.39 381.171,153.948 380.964,153.272C380.758,152.596 380.505,152.015 380.207,151.53" style="fill:none;fill-rule:nonzero;stroke:rgb(56,176,152);stroke-width:3.47px;stroke-linecap:round;stroke-miterlimit:4;"/>
            <path id="STROKE_55b389ec-a4d3-4198-aadd-b25f30c1a4561" serif:id="STROKE_55b389ec-a4d3-4198-aadd-b25f30c1a456" d="M363.157,45.124C362.6,44.217 363.725,46.234 366.532,51.174L366.755,51.174C366.764,51.135 366.678,49.09 366.495,45.037C365.348,43.944 369.691,45.071 379.525,48.417C379.728,48.067 379.624,46.64 379.215,44.135C379.843,44.308 381.994,44.866 385.667,45.808C386.581,44.868 386.938,44.498 386.738,44.698C386.537,44.899 386.712,44.88 387.262,44.641C387.811,44.402 389,44.854 390.829,45.995C392.657,47.136 394.109,48.111 395.185,48.92C396.261,49.729 396.976,50.238 397.332,50.446" style="fill:none;fill-rule:nonzero;stroke:rgb(56,176,152);stroke-width:3.71px;stroke-linecap:round;stroke-miterlimit:4;"/>
        </g>
    </g>
    <defs>
        <linearGradient id="_Linear1" x1="0" y1="0" x2="1" y2="0" gradientUnits="userSpaceOnUse" gradientTransform="matrix(-190.86,-255.568,255.568,-190.86,492.869,527.779)"><stop offset="0" style="stop-color:rgb(23,40,40);stop-opacity:1"/><stop offset="0.65" style="stop-color:rgb(26,45,45);stop-opacity:1"/><stop offset="0.84" style="stop-color:rgb(33,60,59);stop-opacity:1"/><stop offset="1" style="stop-color:rgb(42,77,76);stop-opacity:1"/></linearGradient>
        <linearGradient id="_Linear2" x1="0" y1="0" x2="1" y2="0" gradientUnits="userSpaceOnUse" gradientTransform="matrix(587.55,340.976,-340.976,587.55,85.2065,260.059)"><stop offset="0" style="stop-color:rgb(110,189,148);stop-opacity:1"/><stop offset="0.16" style="stop-color:rgb(83,149,133);stop-opacity:1"/><stop offset="0.35" style="stop-color:rgb(60,115,121);stop-opacity:1"/><stop offset="1" style="stop-color:rgb(52,103,117);stop-opacity:1"/></linearGradient>
    </defs>
</svg>
